{"title":"The.Woman.2011.720p.BRRip.x264.Feel-Free","uid":6759479,"size":2584370396,"categoryP":"video","categoryS":"hd___movies","magnet":"?xt=urn:btih:a62ac69481fee7975a1f5b1c950ea6bc566c8001&amp;dn=The.Woman.2011.720p.BRRip.x264.Feel-Free&amp;tr=udp%3A%2F%2Ftracker.openbittorrent.com%3A80&amp;tr=udp%3A%2F%2Fopen.demonii.com%3A1337&amp;tr=udp%3A%2F%2Ftracker.coppersurfer.tk%3A6969&amp;tr=udp%3A%2F%2Fexodus.desync.com%3A6969","seeders":0,"leechers":0,"uploader":".BONE.","files":8,"time":1319157047,"description":"Genre:Crime | Drama | Horror\nLanguage:English\nIMDb:http://www.imdb.com/title/tt1714208/\nSource:720p.Bluray.X264-7SinS Thanks!\n\nFormat : MPEG-4\nFormat profile : Base Media\nCodec ID : isom\nFile size : 2.40 GiB\nDuration : 1h 42mn\nOverall bit rate : 3 349 Kbps\n\nVideo\nID : 1\nFormat : AVC\nFormat/Info : Advanced Video Codec\nFormat profile : &lt;a class=&quot;__cf_email__&quot; href=&quot;/cdn-cgi/l/email-protection&quot; data-cfemail=&quot;0149686669414d352f30&quot;&gt;[email&amp;#160;protected]&lt;/a&gt;&lt;script cf-hash='f9e31' type=&quot;text/javascript&quot;&gt;\n/* &lt;![CDATA[ */!function(){try{var t=&quot;currentScript&quot;in document?document.currentScript:function(){for(var t=document.getElementsByTagName(&quot;script&quot;),e=t.length;e--;)if(t[e].getAttribute(&quot;cf-hash&quot;))return t[e]}();if(t&amp;&amp;t.previousSibling){var e,r,n,i,c=t.previousSibling,a=c.getAttribute(&quot;data-cfemail&quot;);if(a){for(e=&quot;&quot;,r=parseInt(a.substr(0,2),16),n=2;a.length-n;n+=2)i=parseInt(a.substr(n,2),16)^r,e+=String.fromCharCode(i);e=document.createTextNode(e),c.parentNode.replaceChild(e,c)}}}catch(u){}}();/* ]]&gt; */&lt;/script&gt;\nFormat settings, CABAC : Yes\nFormat settings, ReFrames : 3 frames\nCodec ID : avc1\nCodec ID/Info : Advanced Video Coding\nDuration : 1h 42mn\nBit rate mode : Variable\nBit rate : 3 000 Kbps\nMaximum bit rate : 20.9 Mbps\nWidth : 1 280 pixels\nHeight : 720 pixels\nDisplay aspect ratio : 16:9\nFrame rate mode : Constant\nFrame rate : 23.976 fps\nColor space : YUV\nChroma subsampling : 4:2:0\nBit depth : 8 bits\nScan type : Progressive\nBits/(Pixel*Frame) : 0.136\nStream size : 2.15 GiB (89%)\nWriting library : x264\n\nAudio\nID : 2\nFormat : AAC\nFormat/Info : Advanced Audio Codec\nFormat version : Version 4\nFormat profile : LC\nFormat settings, SBR : No\nCodec ID : 40\nDuration : 1h 42mn\nBit rate mode : Variable\nBit rate : 352.8 Kbps\nMaximum bit rate : 540 Kbps\nChannel(s) : 6 channels\nChannel positions : Front: L C R, Side: L R, LFE\nSampling rate : 48.0 KHz\nStream size : 257 MiB (10%)\n\n\nPlot:\nWhen a successful country lawyer captures and attempts to &quot;civilize&quot; the last remaining member of a violent clan that has roamed the Northeast coast for decades, he puts the lives of his family in jeopardy.\n &lt;a href=&quot;\nhttp://www.pix2links.com/image/SzrP9.png&quot; rel=&quot;nofollow&quot; target=&quot;_NEW&quot;&gt;\nhttp://www.pix2links.com/image/SzrP9.png&lt;/a&gt;\n &lt;a href=&quot;\nhttp://www.pix2links.com/image/faU8b.png&quot; rel=&quot;nofollow&quot; target=&quot;_NEW&quot;&gt;\nhttp://www.pix2links.com/image/faU8b.png&lt;/a&gt;\n &lt;a href=&quot;\nhttp://www.pix2links.com/image/ATs5.png&quot; rel=&quot;nofollow&quot; target=&quot;_NEW&quot;&gt;\nhttp://www.pix2links.com/image/ATs5.png&lt;/a&gt;\n &lt;a href=&quot;\nhttp://www.pix2links.com/image/v23Dp.png&quot; rel=&quot;nofollow&quot; target=&quot;_NEW&quot;&gt;\nhttp://www.pix2links.com/image/v23Dp.png&lt;/a&gt;","torrent":{"xt":"urn:btih:a62ac69481fee7975a1f5b1c950ea6bc566c8001","amp;dn":"The.Woman.2011.720p.BRRip.x264.Feel-Free","amp;tr":["udp%3A%2F%2Ftracker.openbittorrent.com%3A80","udp%3A%2F%2Fopen.demonii.com%3A1337","udp%3A%2F%2Ftracker.coppersurfer.tk%3A6969","udp%3A%2F%2Fexodus.desync.com%3A6969"],"infoHash":"a62ac69481fee7975a1f5b1c950ea6bc566c8001","infoHashBuffer":{"type":"Buffer","data":[166,42,198,148,129,254,231,151,90,31,91,28,149,14,166,188,86,108,128,1]},"announce":[],"urlList":[]}}